<svg width="1440" height="437" viewBox="0 0 1440 437" fill="none" xmlns="http://www.w3.org/2000/svg">
<g clip-path="url(#clip0_2273_2)">
<g clip-path="url(#clip1_2273_2)">
<mask id="mask0_2273_2" style="mask-type:alpha" maskUnits="userSpaceOnUse" x="-21" y="-94" width="1483" height="790">
<path d="M440.041 -93L-20.5 184.692V695.5H1461V188.306L994.406 -93H440.041Z" fill="#D9D9D9" stroke="black"/>
</mask>
<g mask="url(#mask0_2273_2)">
<path d="M427.975 -83.0593L-13.8293 180.965" stroke="white" stroke-width="0.25" stroke-linecap="round" stroke-linejoin="round"/>
<path d="M499.072 -83.0593L-13.8284 325.561" stroke="white" stroke-width="0.25" stroke-linecap="round" stroke-linejoin="round"/>
<path d="M783.464 -83.0593L1074.56 614.261" stroke="white" stroke-width="0.25" stroke-linecap="round" stroke-linejoin="round"/>
<path d="M712.368 -83.0593L711.859 614.261" stroke="white" stroke-width="0.25" stroke-linecap="round" stroke-linejoin="round"/>
<path d="M570.168 -83.0593L-13.6731 614.446" stroke="white" stroke-width="0.25" stroke-linecap="round" stroke-linejoin="round"/>
<path d="M641.271 -83.0593L349.17 614.261" stroke="white" stroke-width="0.25" stroke-linecap="round" stroke-linejoin="round"/>
<path d="M854.561 -83.0593L1437.25 614.261" stroke="white" stroke-width="0.25" stroke-linecap="round" stroke-linejoin="round"/>
<path d="M996.754 -83.0593L1438.81 181.336" stroke="white" stroke-width="0.25" stroke-linecap="round" stroke-linejoin="round"/>
<path d="M925.656 -83.0593L1438.8 326.225" stroke="white" stroke-width="0.25" stroke-linecap="round" stroke-linejoin="round"/>
<path d="M1438.8 243.78H-13.8276" stroke="white" stroke-width="0.25" stroke-linecap="round" stroke-linejoin="round"/>
<path d="M1438.8 322.867H-13.8276" stroke="white" stroke-width="0.25" stroke-linecap="round" stroke-linejoin="round"/>
<path d="M1438.8 431.89H-13.8276" stroke="white" stroke-width="0.25" stroke-linecap="round" stroke-linejoin="round"/>
<path d="M1438.8 183.792H-13.8276" stroke="white" stroke-width="0.25" stroke-linecap="round" stroke-linejoin="round"/>
<path d="M1136.07 -1120.43L1136.08 0.267734H288.529L288.538 -1120.43" stroke="white" stroke-width="0.25" stroke-linecap="round" stroke-linejoin="round"/>
<path d="M1167.96 -1120.43L1167.97 19.3426H256.613L256.62 -1120.43" stroke="white" stroke-width="0.25" stroke-linecap="round" stroke-linejoin="round"/>
<path d="M1205.04 -1120.43L1205.05 41.52H219.498L219.505 -1120.43" stroke="white" stroke-width="0.25" stroke-linecap="round" stroke-linejoin="round"/>
<path d="M1248.69 -1120.43L1248.7 67.6272L175.809 67.6352V-1120.43" stroke="white" stroke-width="0.25" stroke-linecap="round" stroke-linejoin="round"/>
<path d="M1300.84 -1120.43L1300.85 98.8168L123.615 98.8249L123.623 -1120.43" stroke="white" stroke-width="0.25" stroke-linecap="round" stroke-linejoin="round"/>
<path d="M1364.22 -1120.43L1364.23 136.727H60.1775L60.1842 -1120.43" stroke="white" stroke-width="0.25" stroke-linecap="round" stroke-linejoin="round"/>
</g>
<rect x="1440" y="311" width="1440" height="311" transform="rotate(180 1440 311)" fill="url(#paint0_linear_2273_2)"/>
<rect y="159" width="1440" height="394" fill="url(#paint1_linear_2273_2)"/>
</g>
</g>
<defs>
<linearGradient id="paint0_linear_2273_2" x1="2160" y1="311" x2="2160" y2="541.5" gradientUnits="userSpaceOnUse">
<stop stop-opacity="0"/>
<stop offset="1"/>
</linearGradient>
<linearGradient id="paint1_linear_2273_2" x1="720" y1="159" x2="720" y2="487.5" gradientUnits="userSpaceOnUse">
<stop stop-opacity="0"/>
<stop offset="1"/>
</linearGradient>
<clipPath id="clip0_2273_2">
<rect width="1482" height="437" fill="white" transform="translate(-21)"/>
</clipPath>
<clipPath id="clip1_2273_2">
<rect width="1482" height="553" fill="white" transform="translate(-21)"/>
</clipPath>
</defs>
</svg>
