<svg width="402" height="499" viewBox="0 0 402 499" fill="none" xmlns="http://www.w3.org/2000/svg">
<g clip-path="url(#clip0_2002_350)">
<path d="M89.5323 366.578C89.5323 367.358 89.5736 368.139 89.6563 368.92C89.739 369.311 89.7803 369.662 89.7803 369.974C89.863 370.677 89.987 371.341 90.1524 371.966C90.1524 372.356 90.1937 372.747 90.2764 373.137C90.4418 373.762 90.5658 374.387 90.6485 375.011C90.7312 375.402 90.8139 375.792 90.8965 376.183C91.0619 376.886 91.2273 377.549 91.3927 378.174C91.558 378.486 91.6821 378.799 91.7647 379.111C92.0128 380.126 92.3022 381.102 92.6329 382.04C92.9637 382.82 93.2944 383.601 93.6251 384.382C93.7905 384.617 93.9145 384.851 93.9972 385.085C94.2453 385.632 94.4934 386.139 94.7414 386.608C94.9895 387.076 95.2375 387.506 95.4855 387.896C95.7336 388.287 95.9816 388.677 96.2297 389.068C96.4777 389.536 96.7671 389.966 97.0979 390.356C97.3459 390.747 97.6353 391.137 97.9661 391.528C98.1314 391.762 98.3381 391.996 98.5862 392.23C98.9169 392.699 99.289 393.128 99.7025 393.519C99.8678 393.753 100.075 394.026 100.323 394.339C100.819 394.729 101.273 395.159 101.687 395.627C101.852 395.784 102.018 395.94 102.183 396.096C102.844 396.721 103.506 397.306 104.167 397.853C104.912 398.478 105.697 399.063 106.524 399.61L129.469 415.775C128.642 415.228 127.815 414.642 126.988 414.018V413.901C126.327 413.354 125.707 412.807 125.128 412.261C124.963 412.104 124.797 411.948 124.632 411.792C124.301 411.48 123.97 411.167 123.64 410.855C123.474 410.699 123.35 410.582 123.267 410.504C123.019 410.191 122.771 409.918 122.523 409.684C122.193 409.293 121.821 408.864 121.407 408.395C121.242 408.161 121.035 407.927 120.787 407.692C120.704 407.536 120.622 407.38 120.539 407.224C120.374 406.99 120.208 406.755 120.043 406.521C119.712 406.131 119.423 405.701 119.175 405.232C118.927 404.842 118.678 404.452 118.43 404.061C118.182 403.671 117.934 403.241 117.686 402.773C117.521 402.616 117.397 402.421 117.314 402.187C117.149 401.875 117.025 401.562 116.942 401.25C116.777 401.016 116.653 400.781 116.57 400.547C116.157 399.766 115.826 398.985 115.578 398.204C115.247 397.267 114.916 396.291 114.586 395.276C114.503 394.964 114.42 394.651 114.338 394.339C114.172 393.636 114.007 392.972 113.841 392.348C113.759 391.957 113.676 391.567 113.593 391.176C113.428 390.551 113.304 389.927 113.221 389.302C113.139 388.911 113.056 388.521 112.973 388.131C112.891 387.506 112.808 386.842 112.725 386.139C112.643 385.827 112.601 385.476 112.601 385.085C112.518 384.304 112.436 383.523 112.353 382.742C112.353 382.508 112.353 382.274 112.353 382.04C112.27 381.024 112.229 380.009 112.229 378.994C112.229 378.76 112.229 378.525 112.229 378.291C112.229 377.666 112.27 377.003 112.353 376.3C112.353 376.144 112.353 375.987 112.353 375.831C112.353 375.597 112.353 375.363 112.353 375.129C112.436 374.348 112.518 373.567 112.601 372.786C112.601 372.552 112.643 372.317 112.725 372.083C112.808 371.146 112.932 370.17 113.097 369.155C113.18 368.998 113.221 368.842 113.221 368.686C113.304 368.139 113.387 367.593 113.469 367.046C113.552 366.89 113.635 366.695 113.717 366.46C113.8 365.914 113.924 365.367 114.09 364.821C114.172 364.274 114.296 363.727 114.462 363.181C114.627 362.634 114.792 362.087 114.958 361.541C115.04 361.228 115.164 360.916 115.33 360.604C115.33 360.369 115.371 360.174 115.454 360.018C115.619 359.627 115.785 359.237 115.95 358.847C116.198 358.222 116.446 357.597 116.694 356.972C116.777 356.66 116.901 356.309 117.066 355.918C117.232 355.684 117.356 355.45 117.438 355.215C117.604 354.825 117.81 354.395 118.058 353.927C118.141 353.693 118.265 353.419 118.43 353.107C118.844 352.248 119.299 351.389 119.795 350.53L120.043 350.061C120.456 349.359 120.911 348.656 121.407 347.953C121.572 347.641 121.738 347.367 121.903 347.133C122.069 346.899 122.234 346.664 122.399 346.43C122.73 346.04 123.019 345.61 123.267 345.142C123.433 344.985 123.598 344.829 123.764 344.673C124.26 343.892 124.797 343.189 125.376 342.565L125.624 342.33C125.789 342.096 125.955 341.901 126.12 341.745C126.616 341.12 127.154 340.534 127.732 339.988C127.898 339.753 128.105 339.519 128.353 339.285C128.518 339.129 128.683 338.972 128.849 338.816C129.262 338.426 129.676 338.035 130.089 337.645C130.254 337.489 130.461 337.294 130.709 337.059C131.453 336.435 132.239 335.771 133.066 335.068H133.19C133.603 334.756 134.016 334.443 134.43 334.131C134.926 333.74 135.422 333.35 135.918 332.959C136.414 332.647 136.91 332.335 137.406 332.022C137.82 331.71 138.275 331.398 138.771 331.085L139.019 330.968L139.391 330.851C140.3 330.304 141.251 329.758 142.244 329.211L142.368 329.094C143.36 328.625 144.393 328.157 145.468 327.688C145.634 327.61 145.799 327.532 145.964 327.454C146.957 327.064 147.99 326.673 149.065 326.283C149.23 326.205 149.437 326.127 149.685 326.048C150.76 325.736 151.835 325.385 152.91 324.994C153.075 324.994 153.241 324.955 153.406 324.877C154.564 324.565 155.721 324.291 156.879 324.057H157.003C158.243 323.745 159.483 323.51 160.723 323.354C160.971 323.276 161.178 323.237 161.344 323.237C162.584 323.081 163.824 322.925 165.064 322.769C165.312 322.769 165.561 322.769 165.809 322.769C167.049 322.612 168.33 322.534 169.653 322.534C169.901 322.534 170.108 322.534 170.273 322.534C171.679 322.456 173.085 322.417 174.49 322.417C178.873 322.573 183.42 323.042 188.133 323.823C188.299 322.261 188.464 320.738 188.629 319.255C188.795 317.615 188.919 316.092 189.002 314.686C189.167 313.437 189.291 312.265 189.374 311.172C189.456 310.704 189.498 310.274 189.498 309.884C189.87 306.604 190.118 303.793 190.366 301.45C190.366 301.059 190.366 300.669 190.366 300.278C190.448 299.576 190.531 298.912 190.614 298.287V298.053C190.697 296.882 190.779 295.866 190.862 295.007C190.945 294.305 191.027 293.719 191.11 293.25C191.11 293.016 191.11 292.782 191.11 292.548C191.193 292.001 191.234 291.532 191.234 291.142C191.317 290.908 191.358 290.712 191.358 290.556V290.322V290.205V290.088C191.358 289.931 191.358 289.814 191.358 289.736V289.619V289.502V289.385L191.482 289.151C191.482 288.682 191.606 287.628 191.73 285.636C191.73 285.48 191.771 285.285 191.854 285.051C191.937 284.192 192.02 283.099 192.102 281.771C192.185 281.381 192.226 280.951 192.226 280.482C192.474 277.671 192.846 273.923 193.342 269.12C193.425 268.105 193.508 267.09 193.59 266.075C193.839 263.81 194.087 261.35 194.335 258.695C194.417 257.602 194.5 256.47 194.583 255.298L171.762 239.251C171.431 242.843 171.1 246.084 170.77 248.973C170.77 249.285 170.77 249.598 170.77 249.91C170.604 251.55 170.439 253.073 170.273 254.478C170.025 257.875 169.653 260.686 169.529 263.029C169.447 263.966 169.364 264.786 169.281 265.489C169.116 266.582 169.033 267.558 169.033 268.417C168.951 268.73 168.909 269.042 168.909 269.355V269.472C168.827 269.628 168.785 269.823 168.785 270.057C168.661 271.697 168.537 272.517 168.537 272.986V273.22V273.454V273.571C168.537 273.65 168.496 273.767 168.413 273.923V274.04V274.157V274.391C168.413 274.548 168.413 274.743 168.413 274.977C168.33 275.368 168.289 275.836 168.289 276.383C168.206 276.617 168.165 276.851 168.165 277.086C168.165 277.554 168.124 278.14 168.041 278.843C167.958 279.702 167.876 280.717 167.793 281.888L167.669 282.122C167.669 282.747 167.628 283.411 167.545 284.114C167.462 284.504 167.421 284.895 167.421 285.285C167.173 287.628 166.925 290.439 166.677 293.719C166.594 294.109 166.553 294.539 166.553 295.007C166.387 296.101 166.263 297.272 166.181 298.521C166.015 299.927 165.85 301.45 165.685 303.09C165.602 304.574 165.478 306.096 165.312 307.658C160.517 306.877 155.969 306.409 151.67 306.252C150.181 306.252 148.734 306.291 147.329 306.37C147.163 306.37 146.998 306.37 146.833 306.37C145.51 306.37 144.187 306.448 142.864 306.604C142.616 306.604 142.368 306.604 142.119 306.604C140.879 306.76 139.639 306.916 138.399 307.072C138.233 307.15 138.068 307.19 137.903 307.19C136.58 307.346 135.339 307.58 134.182 307.892H134.058C132.817 308.127 131.619 308.4 130.461 308.712C130.296 308.79 130.172 308.868 130.089 308.947C128.931 309.259 127.815 309.571 126.74 309.884C126.575 309.962 126.368 310.04 126.12 310.118C125.045 310.508 124.012 310.899 123.019 311.289C122.854 311.367 122.689 311.445 122.523 311.524C121.531 311.992 120.539 312.461 119.547 312.929L119.299 313.046C118.306 313.593 117.356 314.14 116.446 314.686L116.074 314.803C115.578 315.194 115.04 315.545 114.462 315.858C113.965 316.17 113.511 316.482 113.097 316.795C112.519 317.185 111.981 317.576 111.485 317.966C111.072 318.278 110.658 318.591 110.245 318.903C109.418 319.528 108.591 320.192 107.764 320.894C107.599 321.129 107.392 321.324 107.144 321.48C106.565 322.027 105.986 322.573 105.408 323.12C105.242 323.354 105.036 323.589 104.788 323.823C104.209 324.448 103.671 325.033 103.175 325.58C103.01 325.736 102.844 325.931 102.679 326.166C102.018 326.946 101.397 327.727 100.819 328.508C100.653 328.664 100.529 328.86 100.447 329.094C99.9505 329.719 99.4958 330.343 99.0823 330.968C98.917 331.202 98.7516 331.476 98.5862 331.788C98.0901 332.491 97.6354 333.194 97.2219 333.897L96.9739 334.365C96.4778 335.224 95.9816 336.083 95.4855 336.942C95.4028 337.254 95.2788 337.528 95.1135 337.762C94.7827 338.387 94.4933 339.051 94.2453 339.753C94.0799 340.144 93.9145 340.534 93.7491 340.925C93.5011 341.471 93.2531 342.057 93.005 342.682C92.8396 343.072 92.7156 343.463 92.6329 343.853C92.4676 344.4 92.3022 344.946 92.1368 345.493C91.8887 345.962 91.7234 346.508 91.6407 347.133C91.4754 347.601 91.31 348.109 91.1446 348.656C90.9792 349.202 90.8552 349.749 90.7725 350.296C90.6072 350.998 90.4418 351.74 90.2764 352.521C90.2764 352.677 90.2764 352.834 90.2764 352.99C90.111 354.005 89.9457 354.981 89.7803 355.918C89.7803 356.152 89.739 356.387 89.6563 356.621C89.5736 357.402 89.5323 358.183 89.5323 358.964C89.5323 359.198 89.4909 359.471 89.4082 359.784C89.4082 360.565 89.4082 361.345 89.4082 362.126C89.4082 362.361 89.4082 362.595 89.4082 362.829C89.4082 363.844 89.4082 364.86 89.4082 365.875C89.4082 366.109 89.4496 366.343 89.5323 366.578Z" fill="#FE2C55"/>
<path d="M285.122 113.563V113.798C285.122 114.501 285.163 115.242 285.246 116.023C285.246 116.258 285.246 116.531 285.246 116.843C285.329 117.468 285.37 118.093 285.37 118.717C285.37 119.03 285.411 119.381 285.494 119.772C285.577 120.396 285.618 121.021 285.618 121.646C285.701 122.036 285.742 122.388 285.742 122.7C285.907 123.559 286.032 124.457 286.114 125.394V125.746C286.28 126.761 286.486 127.815 286.734 128.908C286.734 129.221 286.776 129.572 286.858 129.963C287.024 130.665 287.189 131.407 287.354 132.188C287.437 132.657 287.52 133.086 287.603 133.477C287.768 134.179 287.933 134.921 288.099 135.702C288.181 136.093 288.264 136.483 288.347 136.874C288.595 137.811 288.884 138.748 289.215 139.685C289.215 139.919 289.256 140.153 289.339 140.388C289.752 141.559 290.124 142.769 290.455 144.019C290.62 144.331 290.745 144.605 290.827 144.839C291.158 145.776 291.489 146.674 291.819 147.533C291.985 148.002 292.15 148.431 292.316 148.821C292.646 149.602 292.977 150.422 293.308 151.281C293.556 151.672 293.762 152.062 293.928 152.453C294.341 153.39 294.755 154.288 295.168 155.147C295.333 155.459 295.499 155.811 295.664 156.201C295.912 156.513 296.119 156.865 296.284 157.255C296.615 157.88 296.987 158.505 297.401 159.129C297.566 159.52 297.773 159.91 298.021 160.301C298.434 160.926 298.806 161.511 299.137 162.058C299.385 162.448 299.633 162.839 299.881 163.229C300.295 163.854 300.708 164.44 301.121 164.986C301.369 165.377 301.659 165.767 301.99 166.158C302.32 166.626 302.651 167.056 302.982 167.446C303.561 168.227 304.139 168.969 304.718 169.672C305.049 170.062 305.38 170.453 305.71 170.843C306.372 171.624 307.033 172.366 307.695 173.069C308.025 173.381 308.398 173.732 308.811 174.123C309.224 174.591 309.679 175.06 310.175 175.529C310.671 175.997 311.168 176.466 311.664 176.934C312.16 177.403 312.656 177.832 313.152 178.223C313.731 178.691 314.31 179.199 314.888 179.745C315.136 179.902 315.384 180.058 315.632 180.214C316.625 180.995 317.617 181.776 318.609 182.557L341.554 198.604C340.479 197.902 339.446 197.16 338.453 196.379C338.288 196.223 338.081 196.066 337.833 195.91C337.585 195.754 337.378 195.559 337.213 195.325C336.8 195.012 336.428 194.7 336.097 194.387C335.601 193.919 335.105 193.489 334.609 193.099C334.112 192.63 333.616 192.162 333.12 191.693C332.624 191.225 332.128 190.756 331.632 190.288L331.26 189.936C331.012 189.702 330.805 189.429 330.64 189.116C329.978 188.413 329.317 187.711 328.655 187.008C328.325 186.617 327.994 186.227 327.663 185.837C327.002 185.134 326.381 184.392 325.803 183.611C325.637 183.377 325.472 183.142 325.307 182.908C325.141 182.752 324.976 182.557 324.81 182.322C324.562 181.932 324.314 181.542 324.066 181.151C323.653 180.604 323.239 180.019 322.826 179.394C322.578 179.004 322.33 178.613 322.082 178.223C321.668 177.676 321.296 177.09 320.966 176.466C320.718 176.075 320.47 175.685 320.221 175.294C319.891 174.67 319.56 174.045 319.229 173.42C318.981 173.03 318.775 172.678 318.609 172.366L318.485 172.014C318.32 171.78 318.196 171.507 318.113 171.194C317.617 170.335 317.203 169.476 316.873 168.617C316.625 168.227 316.418 167.798 316.253 167.329C315.922 166.548 315.591 165.767 315.26 164.986C315.095 164.596 314.93 164.166 314.764 163.698C314.351 162.839 314.02 161.941 313.772 161.004C313.607 160.691 313.483 160.418 313.4 160.184C312.987 158.934 312.614 157.724 312.284 156.552C312.201 156.318 312.118 156.084 312.036 155.85C311.788 154.913 311.54 153.975 311.292 153.038C311.209 152.648 311.126 152.257 311.043 151.867C310.795 151.086 310.589 150.344 310.423 149.641C310.341 149.173 310.258 148.743 310.175 148.353C310.01 147.572 309.886 146.791 309.803 146.01C309.721 145.698 309.638 145.385 309.555 145.073C309.39 143.98 309.224 142.926 309.059 141.91V141.676C308.894 140.661 308.77 139.724 308.687 138.865C308.604 138.474 308.563 138.123 308.563 137.811C308.48 137.186 308.398 136.522 308.315 135.819C308.315 135.507 308.315 135.195 308.315 134.882C308.232 134.258 308.191 133.633 308.191 133.008C308.108 132.696 308.067 132.422 308.067 132.188C308.067 131.407 308.026 130.665 307.943 129.963V129.611C307.943 128.83 307.943 128.088 307.943 127.386C307.943 127.151 307.943 126.917 307.943 126.683C307.943 126.214 307.943 125.746 307.943 125.277C307.943 125.043 307.943 124.809 307.943 124.574C307.943 124.184 307.943 123.793 307.943 123.403C307.943 123.247 307.943 123.052 307.943 122.817C307.943 122.427 307.984 122.075 308.067 121.763V121.412V121.177C308.067 120.865 308.067 120.592 308.067 120.357V120.123C308.15 119.967 308.191 119.772 308.191 119.537V119.42C308.191 119.264 308.191 119.108 308.191 118.952L285.37 102.787C285.287 102.943 285.246 103.099 285.246 103.256V103.49C285.246 103.646 285.246 103.802 285.246 103.958V104.31C285.163 104.466 285.122 104.7 285.122 105.013V105.247V105.598C285.122 105.911 285.122 106.262 285.122 106.652C285.122 106.887 285.122 107.082 285.122 107.238C285.039 107.629 284.998 108.019 284.998 108.409C284.998 108.644 284.998 108.878 284.998 109.112C284.998 109.581 284.998 110.088 284.998 110.635C284.998 110.791 284.998 110.986 284.998 111.221C284.998 111.924 285.039 112.704 285.122 113.563Z" fill="#FE2C55"/>
<path d="M367.599 198.604C367.434 200.635 367.269 202.509 367.103 204.227C366.607 209.147 366.235 213.246 365.987 216.76C365.822 217.932 365.698 218.986 365.615 219.923C365.532 220.86 365.45 221.719 365.367 222.5C365.284 223.281 365.243 224.023 365.243 224.726C365.16 224.96 365.119 225.155 365.119 225.311C365.036 226.639 364.912 227.849 364.747 228.943C364.747 229.177 364.747 229.45 364.747 229.763C364.664 230.075 364.623 230.387 364.623 230.7C364.54 231.793 364.457 232.691 364.375 233.394C364.292 233.784 364.251 234.175 364.251 234.565C364.251 234.799 364.251 234.995 364.251 235.151V235.268C364.127 235.736 364.127 235.971 364.127 235.971V236.088V236.205C364.127 236.283 364.127 236.4 364.127 236.556V236.674C364.044 236.83 364.003 236.986 364.003 237.142V237.259C364.003 237.728 363.961 238.313 363.879 239.016C363.796 239.719 363.713 240.539 363.631 241.476C363.631 241.789 363.589 242.14 363.507 242.53V242.999C363.507 243.155 363.465 243.35 363.383 243.585C363.383 243.741 363.383 243.897 363.383 244.053C363.3 245.303 363.176 246.747 363.01 248.387C362.928 248.856 362.886 249.324 362.886 249.793V249.91C362.721 251.55 362.556 253.346 362.39 255.298C362.225 256.313 362.101 257.368 362.018 258.461V258.695C361.936 259.867 361.812 261.116 361.646 262.444C353.088 262.209 322.578 258.929 295.912 244.873L273.215 228.943L261.433 353.107C261.267 354.825 261.102 356.504 260.937 358.144C260.854 358.69 260.771 359.237 260.689 359.784C260.606 360.877 260.482 361.97 260.317 363.063C260.151 363.688 260.027 364.313 259.944 364.938C259.779 365.953 259.614 366.968 259.448 367.983C259.283 368.686 259.159 369.35 259.076 369.975C258.994 370.521 258.87 371.029 258.704 371.497C258.621 372.044 258.539 372.591 258.456 373.137C258.291 373.684 258.167 374.23 258.084 374.777C257.753 375.948 257.464 377.081 257.216 378.174C257.051 378.643 256.926 379.072 256.844 379.463C256.43 381.024 255.976 382.586 255.48 384.148C255.397 384.46 255.314 384.773 255.231 385.085C254.901 386.1 254.57 387.115 254.239 388.131C254.157 388.287 254.074 388.443 253.991 388.599C253.33 390.63 252.586 392.66 251.759 394.69C251.676 395.081 251.552 395.471 251.387 395.862C250.725 397.502 250.022 399.141 249.278 400.781C249.113 401.094 248.989 401.406 248.906 401.718C248.741 402.031 248.575 402.343 248.41 402.656C247.831 403.905 247.211 405.154 246.55 406.404C246.302 406.95 246.054 407.497 245.805 408.044C244.896 409.762 243.986 411.441 243.077 413.081L242.953 413.315C241.961 414.955 240.968 416.595 239.976 418.235C239.645 418.703 239.315 419.211 238.984 419.757C238.24 420.851 237.496 421.944 236.752 423.037C236.669 423.193 236.545 423.389 236.379 423.623C236.049 424.013 235.759 424.404 235.511 424.794C234.85 425.731 234.188 426.629 233.527 427.488C233.031 428.113 232.535 428.738 232.038 429.363C231.377 430.222 230.716 431.081 230.054 431.94C229.806 432.252 229.517 432.564 229.186 432.877C228.938 433.189 228.69 433.462 228.442 433.697C227.78 434.556 227.077 435.376 226.333 436.156C225.837 436.781 225.3 437.367 224.721 437.913C223.977 438.772 223.191 439.592 222.364 440.373C221.951 440.764 221.579 441.154 221.248 441.545L220.876 441.896C219.719 442.989 218.561 444.083 217.403 445.176C217.073 445.41 216.783 445.644 216.535 445.879C215.13 447.128 213.641 448.378 212.07 449.627L211.822 449.744C210.747 450.681 209.631 451.54 208.473 452.321C208.143 452.556 207.853 452.79 207.605 453.024C206.53 453.727 205.497 454.469 204.505 455.25C204.174 455.406 203.843 455.601 203.512 455.835C202.272 456.616 201.032 457.397 199.792 458.178L199.544 458.295C198.717 458.842 197.89 459.349 197.063 459.818C196.319 460.208 195.575 460.599 194.831 460.989C194.004 461.458 193.136 461.926 192.226 462.395C191.482 462.785 190.738 463.137 189.994 463.449C189.084 463.918 188.174 464.347 187.265 464.738C186.521 465.05 185.777 465.401 185.032 465.792C184.04 466.104 183.089 466.456 182.18 466.846C181.436 467.158 180.65 467.471 179.823 467.783C178.831 468.096 177.839 468.447 176.847 468.837C176.103 469.072 175.358 469.306 174.614 469.54C173.539 469.853 172.423 470.165 171.265 470.477C170.604 470.712 169.901 470.907 169.157 471.063C167.917 471.375 166.677 471.688 165.436 472C164.775 472.156 164.155 472.312 163.576 472.469C161.674 472.859 159.731 473.171 157.747 473.406C149.933 474.694 142.615 475.397 134.554 475.163C124.756 474.928 113.841 473.406 100.074 470.126C86.5554 465.792 74.897 459.935 64.9749 452.907L87.7957 469.072C97.7178 476.1 109.376 481.957 123.019 486.291C136.786 489.571 147.576 491.093 157.375 491.328C165.436 491.445 172.878 490.859 180.692 489.571C182.593 489.258 184.495 488.907 186.397 488.516C187.058 488.438 187.678 488.321 188.257 488.165C189.497 487.853 190.738 487.54 191.978 487.228C192.722 487.072 193.466 486.876 194.21 486.642C195.285 486.33 196.36 486.017 197.435 485.705C198.179 485.471 198.923 485.236 199.668 485.002C200.742 484.612 201.776 484.26 202.768 483.948C203.512 483.636 204.257 483.323 205.001 483.011C205.993 482.62 206.944 482.23 207.853 481.84C208.68 481.527 209.466 481.215 210.21 480.902C211.119 480.512 212.029 480.082 212.938 479.614C213.683 479.223 214.427 478.833 215.171 478.443C215.998 478.052 216.866 477.623 217.775 477.154C218.52 476.764 219.222 476.334 219.884 475.866C220.793 475.397 221.662 474.928 222.488 474.46C223.811 473.679 225.093 472.859 226.333 472C226.664 471.766 226.995 471.571 227.325 471.414C228.4 470.634 229.475 469.892 230.55 469.189C230.798 468.955 231.088 468.72 231.418 468.486C232.576 467.627 233.775 466.729 235.015 465.792C236.503 464.542 237.992 463.293 239.48 462.044C239.728 461.809 239.976 461.536 240.224 461.224C241.382 460.208 242.539 459.154 243.697 458.061C244.193 457.514 244.731 457.007 245.309 456.538C246.053 455.679 246.839 454.859 247.666 454.078C248.162 453.532 248.658 452.946 249.154 452.321C249.898 451.54 250.642 450.72 251.387 449.861C251.883 449.315 252.379 448.729 252.875 448.104C253.619 447.245 254.322 446.386 254.983 445.527C255.479 444.903 255.934 444.278 256.348 443.653C257.009 442.794 257.671 441.896 258.332 440.959C258.828 440.412 259.283 439.827 259.696 439.202C260.441 438.109 261.143 437.015 261.805 435.922C262.136 435.376 262.466 434.868 262.797 434.399C263.872 432.759 264.864 431.12 265.774 429.48L265.898 429.245C266.89 427.605 267.799 425.927 268.626 424.209C268.957 423.662 269.246 423.115 269.494 422.569C270.156 421.319 270.776 420.07 271.355 418.82C271.603 418.196 271.851 417.571 272.099 416.946C272.843 415.306 273.546 413.666 274.207 412.026C274.373 411.636 274.538 411.245 274.704 410.855C275.53 408.825 276.275 406.794 276.936 404.764C277.35 403.593 277.763 402.382 278.176 401.133C278.259 400.898 278.342 400.625 278.424 400.313C278.838 398.751 279.293 397.189 279.789 395.627C279.871 395.237 279.954 394.807 280.037 394.339C280.367 393.167 280.657 392.035 280.905 390.942C281.07 390.395 281.194 389.81 281.277 389.185C281.525 388.17 281.732 387.154 281.897 386.139C282.062 385.515 282.187 384.851 282.269 384.148C282.517 383.133 282.724 382.118 282.889 381.102C282.972 380.478 283.055 379.853 283.137 379.228C283.303 378.135 283.468 377.042 283.634 375.948C283.716 375.402 283.799 374.855 283.882 374.309C284.047 372.669 284.171 370.99 284.254 369.272L296.036 246.279L306.454 253.658C327.167 268.183 353.336 274.626 370.08 277.203C371.568 277.359 372.974 277.554 374.297 277.788C376.199 278.023 377.935 278.179 379.506 278.257C381.614 278.491 383.351 278.608 384.591 278.608C384.674 277.281 384.798 276.031 384.963 274.86V274.626C385.046 273.532 385.129 272.517 385.211 271.58C385.459 268.769 385.707 266.426 385.955 264.318C386.038 262.834 386.162 261.506 386.327 260.335C386.327 260.101 386.327 259.906 386.327 259.749C386.327 259.593 386.327 259.437 386.327 259.281C386.7 256.47 386.824 254.595 386.948 253.424V253.307C387.072 252.487 387.072 252.018 387.072 251.901V251.784V251.667C387.072 251.589 387.072 251.472 387.072 251.316C387.072 251.159 387.113 251.003 387.196 250.847V250.73C387.196 250.183 387.237 249.441 387.32 248.504C387.402 248.036 387.485 247.489 387.568 246.864C387.65 245.771 387.774 244.483 387.94 242.999C387.94 242.452 387.981 241.906 388.064 241.359C388.147 240.734 388.188 240.071 388.188 239.368L388.312 239.016C388.395 238.157 388.477 237.22 388.56 236.205C388.56 235.58 388.601 234.956 388.684 234.331C389.056 230.465 389.552 225.897 390.048 220.392C390.048 220.079 390.09 219.767 390.172 219.455C390.255 217.971 390.379 216.409 390.544 214.769L367.599 198.604Z" fill="#FE2C55"/>
<path d="M285.37 102.787C284.75 108.761 278.672 191.342 367.599 198.604C364.623 230.465 364.127 235.971 364.127 235.971C364.251 234.448 363.879 238.782 361.646 262.444C350.484 262.209 301.865 256.587 273.215 228.943L261.433 353.107C256.844 409.332 219.388 463.801 157.747 473.406C149.933 474.694 142.615 475.397 134.554 475.163C124.756 474.929 113.841 473.406 100.074 470.126C-36.2308 426.2 19.209 233.862 150.181 237.025C157.126 237.181 164.32 237.923 171.762 239.251C168.537 273.454 168.537 273.454 168.537 273.454C168.537 273.454 168.537 274.04 165.312 307.658C160.517 306.877 155.969 306.409 151.669 306.252C101.191 305.081 80.7262 349.124 92.6327 382.04C98.586 398.322 116.694 408.629 136.538 409.098C156.258 409.567 177.591 400.43 190.366 378.057C193.59 369.233 195.74 359.159 196.815 347.836L220.132 101.264L285.37 102.787Z" fill="black"/>
<path fill-rule="evenodd" clip-rule="evenodd" d="M130.461 469.892C129.469 469.892 128.518 469.892 127.608 469.892C117.19 469.657 106.152 468.018 92.6328 464.855L92.5087 464.738C61.6261 454.781 38.1851 436.391 24.6662 411.558C12.7597 389.419 9.03891 362.361 14.124 335.302C24.5422 280.365 72.2924 225.546 143.36 227.303C150.553 227.42 157.995 228.24 165.312 229.528L167.421 229.88L167.297 231.871C164.444 261.155 164.072 265.723 164.072 266.075H163.948C163.948 266.895 163.824 268.3 163.576 270.76C163.204 275.211 162.336 283.762 160.847 300.396L160.599 302.856L157.995 302.387C153.406 301.567 148.941 301.216 144.724 301.098C124.26 300.63 107.02 308.009 96.2295 321.949C84.819 336.474 81.7184 356.387 88.0438 373.84C93.3769 388.599 110.12 398.907 129.841 399.376C151.049 399.844 170.273 388.833 181.312 369.74C184.412 361.072 186.521 351.116 187.513 340.105L211.078 91.4248L281.029 93.0647L280.781 95.5245C280.533 97.9844 278.921 120.006 288.223 141.91C300.253 170.14 324.81 185.954 361.026 188.882L363.383 189.116L363.135 191.81C360.406 220.04 359.786 227.654 359.662 228.474V228.708C359.662 229.021 359.62 229.333 359.538 229.645L359.166 233.862C358.794 237.962 358.173 244.639 357.181 255.181L356.933 257.29L354.701 257.172C340.81 256.938 296.532 250.496 268.378 226.366L256.968 345.844C254.611 374.894 243.573 402.89 225.961 424.677C206.737 448.456 180.94 463.566 151.297 468.135C143.608 469.423 137.034 469.892 130.461 469.892ZM93.873 460.521C107.02 463.566 117.686 465.206 127.732 465.441C135.05 465.558 141.995 465.089 150.553 463.801C214.675 453.61 248.162 395.393 252.131 345.493L264.533 216.409L268.13 219.923C293.556 244.522 336.469 251.784 352.592 252.604C354.081 237.728 354.825 229.411 354.949 228.24C354.949 228.006 354.949 227.81 354.949 227.654C355.073 226.6 355.197 224.726 355.569 221.563L358.173 193.216C312.408 188.648 292.439 163.815 283.882 143.55C275.448 123.989 275.448 104.778 275.944 97.5158L215.419 95.9931L192.35 340.573C191.234 352.053 189.001 362.361 185.653 371.38L185.529 371.614C173.746 392.348 152.91 404.295 129.717 403.827C108.136 403.358 89.5321 391.879 83.5788 375.246C76.7574 356.504 80.1061 334.951 92.3847 319.255C104.167 304.144 122.771 296.062 144.848 296.53C148.569 296.686 152.372 297.038 156.258 297.584C158.739 271.814 159.235 266.309 159.235 265.84H159.359C159.359 265.021 159.483 263.732 159.731 261.272L162.336 233.511C155.886 232.457 149.561 231.871 143.236 231.754C74.7729 230.114 28.8831 283.06 18.837 336.122C10.5272 379.58 25.2864 438.382 93.873 460.521Z" fill="#25F4EE"/>
<path fill-rule="evenodd" clip-rule="evenodd" d="M118.554 458.412C117.562 458.412 116.611 458.412 115.702 458.412C105.284 458.178 94.2451 456.538 80.7263 453.258H80.6023C49.7197 443.302 26.2786 424.911 12.7598 399.961C0.853211 377.823 -2.86758 350.764 2.2175 323.706C12.6357 268.769 60.3859 214.066 131.453 215.706C138.647 215.94 146.088 216.643 153.406 217.932L155.514 218.4L155.39 220.392C152.538 249.676 152.166 254.127 152.166 254.478H152.042C152.042 255.298 151.917 256.704 151.669 259.281C151.297 263.615 150.429 272.166 148.941 288.799L148.693 291.259L146.088 290.791C141.623 290.088 137.034 289.619 132.817 289.502C112.353 289.033 95.1134 296.413 84.3231 310.352C72.9126 324.994 69.812 344.79 76.1373 362.244C81.4705 377.12 98.338 387.311 117.934 387.779C139.143 388.365 158.367 377.237 169.405 358.144C172.506 349.593 174.614 339.636 175.731 328.625L199.172 79.9454L269.123 81.5853L268.874 83.928C268.626 86.3879 267.014 108.41 276.316 130.431C288.471 158.661 312.904 174.474 349.12 177.403L351.476 177.637L351.228 180.097C348.5 208.444 347.879 216.058 347.755 216.995V217.229C347.755 217.541 347.714 217.815 347.631 218.049L347.259 222.383C346.887 226.483 346.267 233.16 345.275 243.585L345.027 245.693H342.794C328.903 245.342 284.626 239.016 256.472 214.769L245.061 334.365C242.705 363.298 231.667 391.293 214.179 413.081C194.831 436.976 169.033 451.97 139.391 456.655C131.701 457.827 125.128 458.412 118.554 458.412ZM81.9665 448.924C95.1133 452.087 105.904 453.61 115.826 453.844C123.143 454.078 130.213 453.493 138.647 452.204C202.768 442.13 236.256 383.797 240.224 334.014L252.627 204.93L256.224 208.444C281.649 232.925 324.562 240.188 340.686 241.125C342.174 226.248 342.918 217.815 343.042 216.643C343.042 216.487 343.084 216.331 343.166 216.175C343.166 215.003 343.29 213.129 343.662 210.084L346.267 181.62C300.501 177.168 280.533 152.336 271.975 132.071C263.541 112.509 263.665 93.2989 264.038 85.9194L203.513 84.5137L180.444 328.977C179.327 340.456 177.095 350.881 173.746 359.784L173.622 360.135C161.84 380.868 141.003 392.816 117.81 392.348C96.2296 391.762 77.6256 380.283 71.6723 363.766C64.8509 344.907 68.1996 323.471 80.4783 307.658C92.2608 292.548 110.865 284.582 132.941 285.051C136.662 285.129 140.466 285.441 144.352 285.988C146.832 260.335 147.329 254.713 147.329 254.361H147.453C147.453 253.541 147.577 252.136 147.825 249.676L150.429 222.032C143.98 220.977 137.654 220.392 131.329 220.157C62.9905 218.635 16.9766 271.463 6.93049 324.526C-1.37928 368.1 13.3799 426.786 81.9665 448.924Z" fill="#25F4EE"/>
</g>
<path d="M351.067 409.215L340.897 418.82L330.727 409.215L322.913 416.712L332.959 426.317L322.913 435.805L330.727 443.302L340.897 433.697L351.067 443.302L358.881 435.805L348.835 426.317L358.881 416.712L351.067 409.215Z" fill="#FE2C55"/>
<path fill-rule="evenodd" clip-rule="evenodd" d="M351.067 436.508L340.897 426.903L330.727 436.508L322.417 428.543L332.463 418.937L322.417 409.332L330.727 401.484L340.897 410.972L351.067 401.484L359.377 409.332L349.331 418.937L359.377 428.543L351.067 436.508ZM341.021 425.966L351.067 435.454L358.509 428.543L348.339 418.937L358.509 409.449L351.067 402.421L341.021 412.026L330.851 402.421L323.534 409.449L333.58 418.937L323.534 428.543L330.851 435.454L341.021 425.966Z" fill="white"/>
<path d="M92.7719 136.639L86.1985 142.965L79.6251 136.639L74.416 141.559L81.1135 147.767L74.416 153.975L79.6251 158.895L86.1985 152.687L92.7719 158.895L97.9811 153.975L91.2836 147.767L97.9811 141.559L92.7719 136.639Z" fill="#FE2C55"/>
<path fill-rule="evenodd" clip-rule="evenodd" d="M92.7719 154.444L86.1986 148.119L79.6252 154.444L74.168 149.173L80.7414 142.965L74.168 136.756L79.6252 131.602L86.1986 137.811L92.7719 131.602L98.2291 136.756L91.6558 142.965L98.2291 149.173L92.7719 154.444ZM86.1986 147.65L92.7719 153.858L97.609 149.29L91.0356 143.082L97.609 136.874L92.7719 132.305L86.1986 138.513L79.6252 132.305L74.7881 136.874L81.3615 143.082L74.7881 149.29L79.6252 153.858L86.1986 147.65Z" fill="white"/>
<path d="M292.702 5.03686L286.129 11.3622L279.556 5.03686L274.347 9.95657L281.044 16.1648L274.347 22.373L279.556 27.2927L286.129 21.0845L292.702 27.2927L297.912 22.373L291.214 16.1648L297.912 9.95657L292.702 5.03686Z" fill="#25F4EE"/>
<path fill-rule="evenodd" clip-rule="evenodd" d="M292.702 22.8415L286.129 16.5162L279.556 22.8415L274.099 17.5704L280.672 11.3622L274.099 5.15399L279.556 0L286.129 6.20822L292.702 0L298.16 5.15399L291.586 11.3622L298.16 17.5704L292.702 22.8415ZM286.129 16.0477L292.702 22.2559L297.54 17.6876L290.966 11.4793L297.54 5.27112L292.702 0.702817L286.129 6.91103L279.556 0.702817L274.719 5.27112L281.292 11.4793L274.719 17.6876L279.556 22.2559L286.129 16.0477Z" fill="white"/>
<path d="M182.939 75.3771C182.939 90.8391 169.544 103.373 153.172 103.373C136.801 103.373 123.406 90.8391 123.406 75.3771C123.406 59.798 136.801 47.2645 153.172 47.2645C169.544 47.2645 182.939 59.798 182.939 75.3771Z" fill="#FE2C55"/>
<path fill-rule="evenodd" clip-rule="evenodd" d="M153.172 85.8022C136.429 85.8022 122.786 73.0344 122.786 57.221C122.786 41.4076 136.429 28.5227 153.172 28.5227C169.916 28.5227 183.559 41.4076 183.559 57.221C183.559 73.0344 169.916 85.8022 153.172 85.8022ZM153.172 29.694C137.173 29.694 124.15 41.9933 124.15 57.221C124.15 72.3316 137.173 84.6309 153.172 84.6309C169.172 84.6309 182.195 72.3316 182.195 57.221C182.195 41.9933 169.172 29.694 153.172 29.694Z" fill="white"/>
<path d="M398.694 149.407C398.694 152.687 395.717 155.498 392.12 155.498C388.648 155.498 385.671 152.687 385.671 149.29C385.671 146.01 388.648 143.199 392.244 143.199C395.717 143.199 398.694 146.01 398.694 149.29V149.407Z" fill="#25F4EE"/>
<path d="M401.381 366.929C401.381 369.155 399.397 371.029 397.04 371.029C394.684 371.029 392.699 369.155 392.699 366.929C392.699 364.703 394.684 362.829 397.04 362.829C399.397 362.829 401.381 364.703 401.381 366.929Z" fill="#FE2C55"/>
<path d="M379.47 104.895C379.47 107.238 377.361 109.229 374.757 109.229C372.276 109.229 370.168 107.238 370.168 104.895C370.168 102.436 372.276 100.444 374.881 100.444C377.361 100.444 379.47 102.436 379.47 104.895Z" fill="#FE2C55"/>
<path d="M323.038 60.618C323.038 63.5464 320.557 65.8891 317.456 65.8891C314.356 65.8891 311.875 63.5464 311.875 60.618C311.875 57.6895 314.356 55.3468 317.456 55.3468C320.557 55.3468 323.038 57.6895 323.038 60.618Z" fill="#25F4EE"/>
<path d="M52.0913 180.097C52.0913 182.674 49.8588 184.782 47.1302 184.782C44.4017 184.782 42.1692 182.674 42.1692 180.097C42.1692 177.52 44.4017 175.411 47.1302 175.411C49.8588 175.411 52.0913 177.52 52.0913 180.097Z" fill="white"/>
<path d="M114.105 112.509C114.105 115.555 111.5 118.015 108.152 118.015C104.927 118.015 102.322 115.555 102.322 112.392C102.322 109.347 104.927 106.887 108.276 106.887C111.5 106.887 114.105 109.347 114.105 112.392V112.509Z" fill="#25F4EE"/>
<defs>
<clipPath id="clip0_2002_350">
<rect width="390.942" height="427.84" fill="white" transform="translate(0 71.1602)"/>
</clipPath>
</defs>
</svg>
