<svg width="16" height="20" viewBox="0 0 16 20" fill="none" xmlns="http://www.w3.org/2000/svg">
<path d="M9 1.5C9 0.947715 8.55228 0.5 8 0.5C7.44772 0.5 7 0.947715 7 1.5L9 1.5ZM7.29289 19.2071C7.68342 19.5976 8.31658 19.5976 8.70711 19.2071L15.0711 12.8431C15.4616 12.4526 15.4616 11.8195 15.0711 11.4289C14.6805 11.0384 14.0474 11.0384 13.6569 11.4289L8 17.0858L2.34315 11.4289C1.95262 11.0384 1.31946 11.0384 0.928932 11.4289C0.538408 11.8195 0.538408 12.4526 0.928932 12.8431L7.29289 19.2071ZM7 1.5L7 18.5H9L9 1.5L7 1.5Z" fill="white"/>
</svg>
