<svg width="24" height="24" viewBox="0 0 24 24" fill="none" xmlns="http://www.w3.org/2000/svg">
<path d="M12 21.5C14.5196 21.5 16.9359 20.4991 18.7175 18.7175C20.4991 16.9359 21.5 14.5196 21.5 12C21.5 9.48044 20.4991 7.06408 18.7175 5.28249C16.9359 3.50089 14.5196 2.5 12 2.5C9.48044 2.5 7.06408 3.50089 5.28249 5.28249C3.50089 7.06408 2.5 9.48044 2.5 12C2.5 14.5196 3.50089 16.9359 5.28249 18.7175C7.06408 20.4991 9.48044 21.5 12 21.5Z" stroke="white" stroke-width="1.5" stroke-linecap="round" stroke-linejoin="round"/>
<path d="M2.5 12H21.5M12 21.5C14.332 21.5 16.222 17.247 16.222 12C16.222 6.753 14.332 2.5 12 2.5C9.668 2.5 7.778 6.753 7.778 12C7.778 17.247 9.668 21.5 12 21.5Z" stroke="white" stroke-width="1.5" stroke-linecap="round" stroke-linejoin="round"/>
</svg>
