<svg width="66" height="66" viewBox="0 0 66 66" fill="none" xmlns="http://www.w3.org/2000/svg">
<path d="M15.875 7.3251C14.825 7.5376 13.0125 8.4501 12.0625 9.2126C10.0375 10.8501 8.81253 13.2751 8.66253 15.9376C8.56253 17.6751 8.82503 18.9251 9.65003 20.6251C10.2 21.7626 10.425 22.0626 11.425 23.0626C12.375 24.0126 12.75 24.3001 13.75 24.7876C15.2625 25.5251 16.3375 25.7876 17.9375 25.7876C19.6375 25.7876 21.2125 25.4001 22.45 24.6876C22.9375 24.4001 22.975 24.3376 23.25 23.2876C23.8 21.1626 25.2 18.8251 26.7125 17.5376L27.4125 16.9376L27.3375 15.8126C27.1625 13.2501 25.925 10.8251 23.9375 9.2126C22.975 8.4251 21.1875 7.5501 20.0625 7.3126C18.975 7.0876 16.95 7.0876 15.875 7.3251Z" fill="#25F4EE"/>
<path d="M47.8749 7.3126C46.8124 7.5501 45.0124 8.4501 44.0624 9.2126C42.1874 10.7376 40.9249 13.0876 40.6749 15.5626L40.5999 16.3251L41.1374 16.6876C43.5249 18.2501 45.5374 21.4876 45.9374 24.3376C46.0124 24.9376 46.0499 24.9876 46.5374 25.1751C47.6999 25.6126 48.6999 25.7876 49.9999 25.7876C51.6624 25.7876 52.7124 25.5376 54.2499 24.7876C55.2499 24.3001 55.6249 24.0126 56.5749 23.0626C57.5749 22.0626 57.7999 21.7626 58.3499 20.6251C59.1749 18.9251 59.4374 17.6751 59.3374 15.9376C59.1124 11.9626 56.4874 8.6501 52.6124 7.4376C51.6749 7.1376 48.9624 7.0626 47.8749 7.3126Z" fill="#25F4EE"/>
<path d="M32.9125 16.8752C30.6125 17.2877 28.45 18.6002 27.0625 20.4377C26.275 21.4877 25.875 22.2502 25.475 23.5002C25.2375 24.3002 25.1875 24.7002 25.1875 26.1877C25.1875 28.1127 25.3625 28.8502 26.15 30.4127C28.825 35.7127 35.925 37.1752 40.45 33.3502C43.9125 30.4252 44.825 25.7252 42.7125 21.6877C42.325 20.9377 41.9 20.4002 41.0625 19.5627C39.8 18.3002 38.6125 17.5877 37 17.1252C35.925 16.8252 33.9125 16.7002 32.9125 16.8752Z" fill="#25F4EE"/>
<path d="M11.6124 26.75C6.87493 27.75 3.22493 31.4375 2.24993 36.2125C2.01243 37.4 1.99993 37.85 2.02493 42.95L2.06243 48.4125L3.93743 48.95C6.03743 49.5625 9.17493 50.2625 11.0624 50.5625C12.3124 50.7625 15.4499 51.125 15.9499 51.125C16.2124 51.125 16.2249 51.075 16.2874 48.525C16.3374 46.2625 16.3874 45.775 16.6749 44.6875C17.2999 42.3 18.8249 39.6875 20.5874 37.975C21.9624 36.6375 24.3124 35.2 25.8499 34.7375C26.1374 34.65 26.3749 34.55 26.3749 34.5C26.3749 34.4625 26.1999 34.2625 25.9874 34.05C24.4999 32.6375 23.1749 29.725 22.9249 27.3L22.8374 26.5L17.7624 26.5125C13.3624 26.5125 12.5499 26.55 11.6124 26.75Z" fill="#25F4EE"/>
<path d="M46.0749 26.775C46.0374 26.9375 45.9749 27.375 45.9374 27.75C45.7249 29.6375 44.7499 31.875 43.4249 33.5125C42.9749 34.075 42.6249 34.5375 42.6499 34.5625C42.6749 34.575 43.0124 34.7125 43.3999 34.85C46.7499 36.0875 49.5499 38.6125 51.1874 41.875C52.2749 44.05 52.5999 45.5375 52.7124 48.8375C52.7874 51.2 52.7874 51.25 53.0499 51.1875C53.1999 51.1625 53.8749 51.1 54.5624 51.0625C58.2374 50.825 62.4499 49.8625 65.0374 48.6625L65.9999 48.2125V42.8375C65.9999 37.925 65.9749 37.375 65.7374 36.2125C64.7749 31.4 61.1124 27.725 56.3249 26.7375C55.3374 26.5375 54.5999 26.5 50.6624 26.5H46.1249L46.0749 26.775Z" fill="#25F4EE"/>
<path d="M29.2125 36.2626C26.1875 36.5751 23.2125 38.1751 21.2625 40.5251C20.35 41.6126 19.225 43.7876 18.85 45.1876C18.5875 46.1376 18.575 46.4751 18.525 52.1376L18.4875 58.0876L20.025 58.5376C23.3 59.5001 26.0625 60.0876 29.125 60.5001C31.6126 60.8376 37.0876 60.9751 39.3001 60.7626C43.4376 60.3501 47.0001 59.5126 49.4751 58.3626L50.5251 57.8751L50.4626 52.2251C50.4001 45.9251 50.3626 45.6126 49.5376 43.6251C47.7876 39.4626 44.0376 36.7126 39.5126 36.2501C38.0251 36.1001 30.65 36.1126 29.2125 36.2626Z" fill="#25F4EE"/>
<path d="M13.875 5.3251C12.825 5.5376 11.0125 6.4501 10.0625 7.2126C8.03753 8.8501 6.81253 11.2751 6.66253 13.9376C6.56253 15.6751 6.82503 16.9251 7.65003 18.6251C8.20003 19.7626 8.42503 20.0626 9.42503 21.0626C10.375 22.0126 10.75 22.3001 11.75 22.7876C13.2625 23.5251 14.3375 23.7876 15.9375 23.7876C17.6375 23.7876 19.2125 23.4001 20.45 22.6876C20.9375 22.4001 20.975 22.3376 21.25 21.2876C21.8 19.1626 23.2 16.8251 24.7125 15.5376L25.4125 14.9376L25.3375 13.8126C25.1625 11.2501 23.925 8.8251 21.9375 7.2126C20.975 6.4251 19.1875 5.5501 18.0625 5.3126C16.975 5.0876 14.95 5.0876 13.875 5.3251Z" fill="#FE2B54"/>
<path d="M45.8749 5.3126C44.8124 5.5501 43.0124 6.4501 42.0624 7.2126C40.1874 8.7376 38.9249 11.0876 38.6749 13.5626L38.5999 14.3251L39.1374 14.6876C41.5249 16.2501 43.5374 19.4876 43.9374 22.3376C44.0124 22.9376 44.0499 22.9876 44.5374 23.1751C45.6999 23.6126 46.6999 23.7876 47.9999 23.7876C49.6624 23.7876 50.7124 23.5376 52.2499 22.7876C53.2499 22.3001 53.6249 22.0126 54.5749 21.0626C55.5749 20.0626 55.7999 19.7626 56.3499 18.6251C57.1749 16.9251 57.4374 15.6751 57.3374 13.9376C57.1124 9.9626 54.4874 6.6501 50.6124 5.4376C49.6749 5.1376 46.9624 5.0626 45.8749 5.3126Z" fill="#FE2B54"/>
<path d="M30.9125 14.8752C28.6125 15.2877 26.45 16.6002 25.0625 18.4377C24.275 19.4877 23.875 20.2502 23.475 21.5002C23.2375 22.3002 23.1875 22.7002 23.1875 24.1877C23.1875 26.1127 23.3625 26.8502 24.15 28.4127C26.825 33.7127 33.925 35.1752 38.45 31.3502C41.9125 28.4252 42.825 23.7252 40.7125 19.6877C40.325 18.9377 39.9 18.4002 39.0625 17.5627C37.8 16.3002 36.6125 15.5877 35 15.1252C33.925 14.8252 31.9125 14.7002 30.9125 14.8752Z" fill="#FE2B54"/>
<path d="M9.61243 24.75C4.87493 25.75 1.22493 29.4375 0.249931 34.2125C0.0124308 35.4 -6.92032e-05 35.85 0.0249308 40.95L0.0624308 46.4125L1.93743 46.95C4.03743 47.5625 7.17493 48.2625 9.06243 48.5625C10.3124 48.7625 13.4499 49.125 13.9499 49.125C14.2124 49.125 14.2249 49.075 14.2874 46.525C14.3374 44.2625 14.3874 43.775 14.6749 42.6875C15.2999 40.3 16.8249 37.6875 18.5874 35.975C19.9624 34.6375 22.3124 33.2 23.8499 32.7375C24.1374 32.65 24.3749 32.55 24.3749 32.5C24.3749 32.4625 24.1999 32.2625 23.9874 32.05C22.4999 30.6375 21.1749 27.725 20.9249 25.3L20.8374 24.5L15.7624 24.5125C11.3624 24.5125 10.5499 24.55 9.61243 24.75Z" fill="#FE2B54"/>
<path d="M44.0749 24.775C44.0374 24.9375 43.9749 25.375 43.9374 25.75C43.7249 27.6375 42.7499 29.875 41.4249 31.5125C40.9749 32.075 40.6249 32.5375 40.6499 32.5625C40.6749 32.575 41.0124 32.7125 41.3999 32.85C44.7499 34.0875 47.5499 36.6125 49.1874 39.875C50.2749 42.05 50.5999 43.5375 50.7124 46.8375C50.7874 49.2 50.7874 49.25 51.0499 49.1875C51.1999 49.1625 51.8749 49.1 52.5624 49.0625C56.2374 48.825 60.4499 47.8625 63.0374 46.6625L63.9999 46.2125V40.8375C63.9999 35.925 63.9749 35.375 63.7374 34.2125C62.7749 29.4 59.1124 25.725 54.3249 24.7375C53.3374 24.5375 52.5999 24.5 48.6624 24.5H44.1249L44.0749 24.775Z" fill="#FE2B54"/>
<path d="M27.2125 34.2626C24.1875 34.5751 21.2125 36.1751 19.2625 38.5251C18.35 39.6126 17.225 41.7876 16.85 43.1876C16.5875 44.1376 16.575 44.4751 16.525 50.1376L16.4875 56.0876L18.025 56.5376C21.3 57.5001 24.0625 58.0876 27.125 58.5001C29.6126 58.8376 35.0876 58.9751 37.3001 58.7626C41.4376 58.3501 45.0001 57.5126 47.4751 56.3626L48.5251 55.8751L48.4626 50.2251C48.4001 43.9251 48.3626 43.6126 47.5376 41.6251C45.7876 37.4626 42.0376 34.7126 37.5126 34.2501C36.0251 34.1001 28.65 34.1126 27.2125 34.2626Z" fill="#FE2B54"/>
</svg>
