<svg width="66" height="66" viewBox="0 0 66 66" fill="none" xmlns="http://www.w3.org/2000/svg">
<g clip-path="url(#clip0_2289_65)">
<path d="M56.2501 2.12493C48.1501 2.64993 39.8751 5.98744 32.8626 11.5624C30.5501 13.4124 28.5876 15.2624 25.6501 18.3749L23.8251 20.3124L19.4376 20.3749L15.0626 20.4374L14.3626 20.7874C12.8126 21.5374 12.7501 21.6374 9.91261 27.2999C7.40011 32.3124 7.35011 32.4499 7.40011 33.0874C7.43761 33.5374 7.56261 33.8624 7.80011 34.1749C8.45011 35.0249 8.57511 35.0624 12.1001 35.0999L15.2501 35.1374L15.1626 35.6624C15.1001 35.9499 15.0626 36.7999 15.0751 37.5624C15.0876 39.1874 15.3251 39.9374 16.1751 41.0874C16.4751 41.4874 19.0126 44.0999 21.8251 46.8874C26.6251 51.6499 27.0001 51.9874 27.8751 52.4124C29.1001 53.0124 30.2501 53.1874 31.6251 52.9999C32.1876 52.9249 32.7251 52.8249 32.8126 52.7999C32.9626 52.7374 33.0001 53.2749 33.0251 56.0249L33.0626 59.3374L33.4126 59.7874C33.8751 60.3999 34.4251 60.6749 35.1876 60.6624C35.7376 60.6499 36.3626 60.3749 40.7376 58.1874C46.1501 55.4874 46.5626 55.1999 47.2001 53.8249C47.6751 52.7874 47.7501 51.9999 47.7501 47.9374L47.7626 44.1874L49.7751 42.3249C54.5626 37.8624 57.9876 33.6874 60.6251 29.0749C64.1751 22.8874 66.1501 15.4249 65.9626 8.99993C65.8876 6.07493 65.5001 4.98743 64.0751 3.64993C63.3376 2.94993 62.4751 2.49993 61.4376 2.27493C60.5501 2.08743 58.0751 2.01243 56.2501 2.12493ZM50.3751 10.1749C52.4126 10.5499 54.0626 11.4374 55.4751 12.9249C57.0626 14.5999 57.8501 16.4499 57.9626 18.7624C58.1501 22.4999 56.1876 25.7999 52.8126 27.4374C51.3251 28.1624 49.9876 28.4249 48.3126 28.3374C45.9376 28.2124 44.1501 27.3999 42.3751 25.6249C41.1501 24.4124 40.4501 23.2124 39.9876 21.5499C39.6251 20.2999 39.6001 18.2249 39.9251 16.9999C41.1876 12.2999 45.7251 9.33744 50.3751 10.1749Z" fill="#25F4EE"/>
<path d="M11.05 47C7.87503 47.4375 5.46253 49.225 3.93753 52.25C2.71253 54.7 2.13753 57.375 2.03753 61.1375C1.96253 63.8125 2.05003 65.35 2.31253 65.7C2.43753 65.875 2.62503 65.925 3.11253 65.9C4.66253 65.8375 6.08753 64.8375 6.61253 63.4625C7.28753 61.625 7.80003 61.0875 8.56253 61.375C9.00003 61.5375 9.08753 61.8125 9.15003 63.075C9.18753 64.025 9.26253 64.3375 9.57503 64.95L9.93753 65.6875L10.625 65.6625C12.1 65.6125 14.925 64.6875 16.525 63.7375C18.2375 62.725 19.35 61.5375 20.1875 59.8125C21.7125 56.675 21.3125 52.9875 19.15 50.3C17.225 47.925 13.9875 46.6 11.05 47Z" fill="#25F4EE"/>
</g>
<g clip-path="url(#clip1_2289_65)">
<path d="M54.2501 0.124932C46.1501 0.649932 37.8751 3.98744 30.8626 9.56244C28.5501 11.4124 26.5876 13.2624 23.6501 16.3749L21.8251 18.3124L17.4376 18.3749L13.0626 18.4374L12.3626 18.7874C10.8126 19.5374 10.7501 19.6374 7.91261 25.2999C5.40011 30.3124 5.35011 30.4499 5.40011 31.0874C5.43761 31.5374 5.56261 31.8624 5.80011 32.1749C6.45011 33.0249 6.57511 33.0624 10.1001 33.0999L13.2501 33.1374L13.1626 33.6624C13.1001 33.9499 13.0626 34.7999 13.0751 35.5624C13.0876 37.1874 13.3251 37.9374 14.1751 39.0874C14.4751 39.4874 17.0126 42.0999 19.8251 44.8874C24.6251 49.6499 25.0001 49.9874 25.8751 50.4124C27.1001 51.0124 28.2501 51.1874 29.6251 50.9999C30.1876 50.9249 30.7251 50.8249 30.8126 50.7999C30.9626 50.7374 31.0001 51.2749 31.0251 54.0249L31.0626 57.3374L31.4126 57.7874C31.8751 58.3999 32.4251 58.6749 33.1876 58.6624C33.7376 58.6499 34.3626 58.3749 38.7376 56.1874C44.1501 53.4874 44.5626 53.1999 45.2001 51.8249C45.6751 50.7874 45.7501 49.9999 45.7501 45.9374L45.7626 42.1874L47.7751 40.3249C52.5626 35.8624 55.9876 31.6874 58.6251 27.0749C62.1751 20.8874 64.1501 13.4249 63.9626 6.99993C63.8876 4.07493 63.5001 2.98743 62.0751 1.64993C61.3376 0.949932 60.4751 0.499932 59.4376 0.274932C58.5501 0.087432 56.0751 0.012432 54.2501 0.124932ZM48.3751 8.17494C50.4126 8.54994 52.0626 9.43744 53.4751 10.9249C55.0626 12.5999 55.8501 14.4499 55.9626 16.7624C56.1501 20.4999 54.1876 23.7999 50.8126 25.4374C49.3251 26.1624 47.9876 26.4249 46.3126 26.3374C43.9376 26.2124 42.1501 25.3999 40.3751 23.6249C39.1501 22.4124 38.4501 21.2124 37.9876 19.5499C37.6251 18.2999 37.6001 16.2249 37.9251 14.9999C39.1876 10.2999 43.7251 7.33744 48.3751 8.17494Z" fill="#FE2B54"/>
<path d="M9.05003 45C5.87503 45.4375 3.46253 47.225 1.93753 50.25C0.712529 52.7 0.137529 55.375 0.0375287 59.1375C-0.0374713 61.8125 0.0500287 63.35 0.312529 63.7C0.437529 63.875 0.625029 63.925 1.11253 63.9C2.66253 63.8375 4.08753 62.8375 4.61253 61.4625C5.28753 59.625 5.80003 59.0875 6.56253 59.375C7.00003 59.5375 7.08753 59.8125 7.15003 61.075C7.18753 62.025 7.26253 62.3375 7.57503 62.95L7.93753 63.6875L8.62503 63.6625C10.1 63.6125 12.925 62.6875 14.525 61.7375C16.2375 60.725 17.35 59.5375 18.1875 57.8125C19.7125 54.675 19.3125 50.9875 17.15 48.3C15.225 45.925 11.9875 44.6 9.05003 45Z" fill="#FE2B54"/>
</g>
<defs>
<clipPath id="clip0_2289_65">
<rect width="64" height="64" fill="white" transform="translate(2 2)"/>
</clipPath>
<clipPath id="clip1_2289_65">
<rect width="64" height="64" fill="white"/>
</clipPath>
</defs>
</svg>
