<svg width="18" height="20" viewBox="0 0 18 20" fill="none" xmlns="http://www.w3.org/2000/svg">
<path d="M8.79011 8.67298L8.73211 8.93798C8.48052 10.1076 8.01687 11.2213 7.36411 12.224M7.36411 12.224C8.4444 11.7488 9.58745 11.4315 10.7581 11.282L10.8531 11.269M7.36411 12.224C6.94678 12.4066 6.53745 12.6126 6.13611 12.842L4.43011 13.817C3.95511 14.088 3.85311 14.811 4.22811 15.24C4.56011 15.619 5.10811 15.578 5.39311 15.153L7.30311 12.316L7.36411 12.224ZM8.78911 8.67298L9.25611 6.53698C9.41811 5.79898 8.70011 5.22098 8.14611 5.64298C7.84911 5.86898 7.73911 6.30798 7.88611 6.67998L8.13211 7.29698C8.32278 7.77632 8.54178 8.23498 8.78911 8.67298ZM8.78911 8.67298C9.33382 9.64315 10.0307 10.5196 10.8531 11.269M10.8531 11.269L13.1081 10.983C13.7401 10.903 14.1981 11.654 13.9141 12.303C13.7071 12.777 13.1931 12.952 12.7931 12.685L11.9421 12.117C11.5588 11.8614 11.1948 11.578 10.8531 11.269Z" stroke="white"/>
<path d="M4.79199 19.25H13.208C14.1363 19.25 15.0265 18.8813 15.6829 18.2249C16.3392 17.5685 16.708 16.6783 16.708 15.75V10.22C16.7083 9.29186 16.34 8.40159 15.684 7.745L9.71499 1.775C9.38996 1.45 9.0041 1.19221 8.57944 1.01634C8.15478 0.840469 7.69963 0.749967 7.23999 0.75H4.79199C3.86373 0.75 2.9735 1.11875 2.31712 1.77513C1.66074 2.4315 1.29199 3.32174 1.29199 4.25V15.75C1.29199 16.6783 1.66074 17.5685 2.31712 18.2249C2.9735 18.8813 3.86373 19.25 4.79199 19.25Z" stroke="white" stroke-width="1.5" stroke-linecap="round" stroke-linejoin="round"/>
</svg>
