<svg width="66" height="66" viewBox="0 0 66 66" fill="none" xmlns="http://www.w3.org/2000/svg">
<g clip-path="url(#clip0_2289_66)">
<path d="M31.625 2.08749C25.775 2.63749 20.8375 4.33749 16.375 7.32499C11.5625 10.5375 7.85005 14.775 5.30005 19.9375C3.72505 23.1625 2.76255 26.325 2.22505 30.0625C2.01255 31.5375 2.01255 36.4625 2.22505 37.9375C2.75005 41.625 3.72505 44.85 5.25005 47.9375C6.96255 51.4375 8.65005 53.7875 11.425 56.575C14.1875 59.325 16.575 61.0375 19.9375 62.6875C22.2875 63.8375 23.8 64.4 26.1875 65C32.4375 66.575 38.7125 66.275 44.8125 64.1125C46.675 63.45 49.9 61.8375 51.5625 60.725C55.3 58.2375 58.725 54.725 61.175 50.875C62.075 49.4625 63.525 46.4625 64.1125 44.8C66.4 38.35 66.6 31.525 64.6875 24.9375C64.3875 23.9 63.3125 21.025 63.175 20.8875C63.15 20.85 62.1 21.8375 60.8375 23.0875C59.5875 24.325 58.375 25.4375 58.15 25.575C57.9 25.7125 57.775 25.875 57.8125 25.9875C58.075 26.6625 58.5375 28.55 58.75 29.8125C60.6375 40.7875 54.95 51.75 44.85 56.625C37.95 59.9625 29.925 59.9375 23.0625 56.575C17.8625 54.025 13.875 50.025 11.375 44.8625C8.06255 37.9875 8.06255 30.0125 11.375 23.1375C15.7375 14.1125 24.9875 8.52499 34.9375 8.91249C36.975 8.99999 39.4875 9.39999 41.1875 9.92499C41.725 10.1 42.1875 10.225 42.1875 10.2125C42.4 9.77499 43.5375 8.51249 45.1125 6.93749C46.225 5.83749 47.125 4.89999 47.125 4.86249C47.125 4.82499 46.6625 4.59999 46.1 4.37499C41.9625 2.73749 37.95 1.97499 33.75 2.02499C32.825 2.02499 31.8625 2.06249 31.625 2.08749Z" fill="#25F4EE"/>
<path d="M54.5626 3.13745C54.0251 3.29995 45.5376 11.7999 45.3876 12.3374C45.3126 12.5874 45.3751 13.8874 45.5626 16.0874L45.8501 19.4374L39.1876 26.1249C35.5251 29.7999 32.4376 32.9874 32.3251 33.2124C31.5626 34.7374 33.2626 36.4374 34.7876 35.6749C35.0126 35.5624 38.2001 32.4749 41.8751 28.8124L48.5626 22.1499L51.8626 22.4249C53.8626 22.5999 55.3501 22.6749 55.6126 22.6124C55.9626 22.5374 56.8751 21.6874 60.4001 18.1624C65.1251 13.4499 65.1501 13.4124 64.8751 12.3874C64.7251 11.8249 64.0751 11.1874 63.5376 11.0749C63.3501 11.0374 61.9376 10.8874 60.4001 10.7624C58.8626 10.6249 57.5751 10.4999 57.5376 10.4624C57.5126 10.4249 57.3751 9.16245 57.2376 7.66245C57.1126 6.16245 56.9751 4.74995 56.9376 4.52495C56.8376 3.97495 56.2001 3.28745 55.6501 3.12495C55.1251 2.98745 55.0626 2.98745 54.5626 3.13745Z" fill="#25F4EE"/>
<path d="M31.625 12.7501C25.2 13.5376 19.55 17.0376 16.0875 22.3751C11.4875 29.4876 11.4875 38.5001 16.0875 45.6251C17.675 48.0751 19.9125 50.3126 22.375 51.9001C31.0625 57.5376 42.5125 56.1501 49.5625 48.5876C54.9 42.8751 56.7125 34.9126 54.3625 27.5251C54.15 26.9001 53.925 26.3751 53.8375 26.3751C53.75 26.3626 52.85 26.2876 51.8125 26.1876L49.9375 26.0251L48.4375 27.5126L46.95 28.9876L47.2125 29.8376C47.6875 31.3626 47.8 32.1501 47.8 34.0001C47.8 35.9001 47.6875 36.6626 47.1625 38.3126C45.8625 42.4001 42.425 45.8376 38.3125 47.1626C36.6625 47.6876 35.9 47.8001 34 47.8001C32.1 47.8001 31.3375 47.6876 29.6875 47.1626C25.6 45.8501 22.1625 42.4251 20.8375 38.3126C20.3125 36.6626 20.2 35.9001 20.2 34.0001C20.2 32.1001 20.3125 31.3376 20.8375 29.6876C21.9125 26.3376 24.425 23.3751 27.5375 21.7376C30.825 20.0251 34.7 19.6751 38.1625 20.7751L39.0125 21.0501L40.4875 19.5626L41.975 18.0626L41.8125 16.1876C41.7125 15.1501 41.6375 14.2501 41.625 14.1626C41.625 13.9626 39.6375 13.3376 37.9375 13.0001C36.3625 12.6876 33.15 12.5626 31.625 12.7501Z" fill="#25F4EE"/>
<path d="M32.5625 23.9624C30.8625 24.2249 28.875 25.1124 27.6 26.1749C26.45 27.1249 25.5875 28.2374 24.9375 29.5624C24.125 31.2374 23.95 32.0124 23.95 33.9999C23.95 35.9874 24.125 36.7624 24.9375 38.4374C25.925 40.4749 27.5125 42.0624 29.5875 43.0749C34.575 45.5249 40.65 43.4374 43.0625 38.4374C43.8499 36.7874 44.0624 35.8749 44.0624 33.9124C44.0624 33.0124 44.0249 32.2249 43.9624 32.1749C43.9124 32.1249 42.3625 33.5749 40.525 35.3999C36.8625 39.0374 36.6 39.2249 34.8875 39.5249C33.125 39.8249 31.375 39.2499 30.05 37.9374C28.7375 36.6374 28.175 34.8874 28.475 33.1124C28.775 31.3999 28.9625 31.1374 32.6 27.4749C34.425 25.6374 35.8875 24.0874 35.8375 24.0499C35.7375 23.9499 33.075 23.8749 32.5625 23.9624Z" fill="#25F4EE"/>
</g>
<g clip-path="url(#clip1_2289_66)">
<path d="M29.625 0.0874916C23.775 0.637492 18.8375 2.33749 14.375 5.32499C9.56255 8.53749 5.85005 12.775 3.30005 17.9375C1.72505 21.1625 0.762549 24.325 0.225049 28.0625C0.0125488 29.5375 0.0125488 34.4625 0.225049 35.9375C0.750049 39.625 1.72505 42.85 3.25005 45.9375C4.96255 49.4375 6.65005 51.7875 9.42505 54.575C12.1875 57.325 14.575 59.0375 17.9375 60.6875C20.2875 61.8375 21.8 62.4 24.1875 63C30.4375 64.575 36.7125 64.275 42.8125 62.1125C44.675 61.45 47.9 59.8375 49.5625 58.725C53.3 56.2375 56.725 52.725 59.175 48.875C60.075 47.4625 61.525 44.4625 62.1125 42.8C64.4 36.35 64.6 29.525 62.6875 22.9375C62.3875 21.9 61.3125 19.025 61.175 18.8875C61.15 18.85 60.1 19.8375 58.8375 21.0875C57.5875 22.325 56.375 23.4375 56.15 23.575C55.9 23.7125 55.775 23.875 55.8125 23.9875C56.075 24.6625 56.5375 26.55 56.75 27.8125C58.6375 38.7875 52.95 49.75 42.85 54.625C35.95 57.9625 27.925 57.9375 21.0625 54.575C15.8625 52.025 11.875 48.025 9.37505 42.8625C6.06255 35.9875 6.06255 28.0125 9.37505 21.1375C13.7375 12.1125 22.9875 6.52499 32.9375 6.91249C34.975 6.99999 37.4875 7.39999 39.1875 7.92499C39.725 8.09999 40.1875 8.22499 40.1875 8.21249C40.4 7.77499 41.5375 6.51249 43.1125 4.93749C44.225 3.83749 45.125 2.89999 45.125 2.86249C45.125 2.82499 44.6625 2.59999 44.1 2.37499C39.9625 0.737492 35.95 -0.0250084 31.75 0.0249916C30.825 0.0249916 29.8625 0.0624916 29.625 0.0874916Z" fill="#FE2B54"/>
<path d="M52.5626 1.13745C52.0251 1.29995 43.5376 9.79995 43.3876 10.3374C43.3126 10.5874 43.3751 11.8874 43.5626 14.0874L43.8501 17.4374L37.1876 24.1249C33.5251 27.7999 30.4376 30.9874 30.3251 31.2124C29.5626 32.7374 31.2626 34.4374 32.7876 33.6749C33.0126 33.5624 36.2001 30.4749 39.8751 26.8124L46.5626 20.1499L49.8626 20.4249C51.8626 20.5999 53.3501 20.6749 53.6126 20.6124C53.9626 20.5374 54.8751 19.6874 58.4001 16.1624C63.1251 11.4499 63.1501 11.4124 62.8751 10.3874C62.7251 9.82495 62.0751 9.18745 61.5376 9.07495C61.3501 9.03745 59.9376 8.88745 58.4001 8.76245C56.8626 8.62495 55.5751 8.49995 55.5376 8.46245C55.5126 8.42495 55.3751 7.16245 55.2376 5.66245C55.1126 4.16245 54.9751 2.74995 54.9376 2.52495C54.8376 1.97495 54.2001 1.28745 53.6501 1.12495C53.1251 0.987447 53.0626 0.987447 52.5626 1.13745Z" fill="#FE2B54"/>
<path d="M29.625 10.7501C23.2 11.5376 17.55 15.0376 14.0875 20.3751C9.48745 27.4876 9.48745 36.5001 14.0875 43.6251C15.675 46.0751 17.9125 48.3126 20.375 49.9001C29.0625 55.5376 40.5125 54.1501 47.5625 46.5876C52.9 40.8751 54.7125 32.9126 52.3625 25.5251C52.15 24.9001 51.925 24.3751 51.8375 24.3751C51.75 24.3626 50.85 24.2876 49.8125 24.1876L47.9375 24.0251L46.4375 25.5126L44.95 26.9876L45.2125 27.8376C45.6875 29.3626 45.8 30.1501 45.8 32.0001C45.8 33.9001 45.6875 34.6626 45.1625 36.3126C43.8625 40.4001 40.425 43.8376 36.3125 45.1626C34.6625 45.6876 33.9 45.8001 32 45.8001C30.1 45.8001 29.3375 45.6876 27.6875 45.1626C23.6 43.8501 20.1625 40.4251 18.8375 36.3126C18.3125 34.6626 18.2 33.9001 18.2 32.0001C18.2 30.1001 18.3125 29.3376 18.8375 27.6876C19.9125 24.3376 22.425 21.3751 25.5375 19.7376C28.825 18.0251 32.7 17.6751 36.1625 18.7751L37.0125 19.0501L38.4875 17.5626L39.975 16.0626L39.8125 14.1876C39.7125 13.1501 39.6375 12.2501 39.625 12.1626C39.625 11.9626 37.6375 11.3376 35.9375 11.0001C34.3625 10.6876 31.15 10.5626 29.625 10.7501Z" fill="#FE2B54"/>
<path d="M30.5625 21.9624C28.8625 22.2249 26.875 23.1124 25.6 24.1749C24.45 25.1249 23.5875 26.2374 22.9375 27.5624C22.125 29.2374 21.95 30.0124 21.95 31.9999C21.95 33.9874 22.125 34.7624 22.9375 36.4374C23.925 38.4749 25.5125 40.0624 27.5875 41.0749C32.575 43.5249 38.65 41.4374 41.0625 36.4374C41.8499 34.7874 42.0624 33.8749 42.0624 31.9124C42.0624 31.0124 42.0249 30.2249 41.9624 30.1749C41.9124 30.1249 40.3625 31.5749 38.525 33.3999C34.8625 37.0374 34.6 37.2249 32.8875 37.5249C31.125 37.8249 29.375 37.2499 28.05 35.9374C26.7375 34.6374 26.175 32.8874 26.475 31.1124C26.775 29.3999 26.9625 29.1374 30.6 25.4749C32.425 23.6374 33.8875 22.0874 33.8375 22.0499C33.7375 21.9499 31.075 21.8749 30.5625 21.9624Z" fill="#FE2B54"/>
</g>
<defs>
<clipPath id="clip0_2289_66">
<rect width="64" height="64" fill="white" transform="translate(2 2)"/>
</clipPath>
<clipPath id="clip1_2289_66">
<rect width="64" height="64" fill="white"/>
</clipPath>
</defs>
</svg>
